<?xml version="1.0" encoding="UTF-8"?>
<svg id="Layer_1" data-name="Layer 1" xmlns="http://www.w3.org/2000/svg" viewBox="0 0 200 200">
  <defs>
    <style>
      .cls-1 {
        fill: #ffde00;
      }

      .cls-1, .cls-2 {
        stroke-width: 0px;
      }

      .cls-2 {
        fill: #ff2405;
      }
    </style>
  </defs>
  <g>
    <path class="cls-1" d="m162.5,58.33c-3.43,0-6.61,1.05-9.27,2.82-2.28-6.49-8.47-11.15-15.73-11.15-3.43,0-6.61,1.05-9.27,2.82-2.28-6.49-8.47-11.15-15.73-11.15-3.03,0-5.88.82-8.33,2.25v-27.25c0-9.19-7.47-16.67-16.67-16.67s-16.67,7.48-16.67,16.67v97.43l-22.91-11.46c-3.45-1.72-7.32-2.63-11.17-2.63-8.79,0-15.92,7.15-15.92,15.97,0,4.26,1.66,8.25,4.67,11.26l53.89,53.89c12.17,12.18,28.38,18.89,45.61,18.89,29.87,0,54.17-24.3,54.17-54.17v-70.83c0-9.19-7.47-16.67-16.67-16.67Zm8.33,87.5c0,25.28-20.57,45.83-45.84,45.83-15.01,0-29.11-5.84-39.71-16.45l-53.89-53.89c-1.43-1.43-2.23-3.33-2.23-5.41,0-4.19,3.4-7.59,7.59-7.59,2.57,0,5.14.61,7.45,1.76l28.94,14.47c1.29.64,2.83.57,4.05-.18,1.23-.76,1.97-2.1,1.97-3.55V16.67c0-4.59,3.73-8.33,8.33-8.33s8.33,3.75,8.33,8.33v79.17c0,2.3,1.87,4.17,4.17,4.17s4.17-1.87,4.17-4.17v-37.5c0-4.59,3.73-8.33,8.33-8.33s8.33,3.75,8.33,8.33v37.5c0,2.3,1.87,4.17,4.17,4.17s4.17-1.87,4.17-4.17v-29.17c0-4.59,3.73-8.33,8.33-8.33s8.33,3.75,8.33,8.33v29.17c0,2.3,1.87,4.17,4.17,4.17s4.17-1.87,4.17-4.17v-20.83c0-4.59,3.73-8.33,8.33-8.33s8.33,3.75,8.33,8.33v70.83Z"/>
    <path class="cls-2" d="m170.83,75v70.83c0,25.28-20.57,45.83-45.84,45.83-15.01,0-29.11-5.84-39.71-16.45l-53.89-53.89c-1.43-1.43-2.23-3.33-2.23-5.41,0-4.19,3.4-7.59,7.59-7.59,2.57,0,5.14.61,7.45,1.76l28.94,14.47c1.29.64,2.83.57,4.05-.18,1.23-.76,1.97-2.1,1.97-3.55V16.67c0-4.59,3.73-8.33,8.33-8.33s8.33,3.75,8.33,8.33v79.17c0,2.3,1.87,4.17,4.17,4.17s4.17-1.87,4.17-4.17v-37.5c0-4.59,3.73-8.33,8.33-8.33s8.33,3.75,8.33,8.33v37.5c0,2.3,1.87,4.17,4.17,4.17s4.17-1.87,4.17-4.17v-29.17c0-4.59,3.73-8.33,8.33-8.33s8.33,3.75,8.33,8.33v29.17c0,2.3,1.87,4.17,4.17,4.17s4.17-1.87,4.17-4.17v-20.83c0-4.59,3.73-8.33,8.33-8.33s8.33,3.75,8.33,8.33Z"/>
  </g>
  <g>
    <polygon class="cls-1" points="100.23 114.43 105.79 131.55 123.79 131.55 109.23 142.13 114.79 159.25 100.23 148.67 85.67 159.25 91.23 142.13 76.67 131.55 94.67 131.55 100.23 114.43"/>
    <polygon class="cls-1" points="143.55 107.92 142.98 113.63 148.24 115.94 142.63 117.17 142.07 122.88 139.17 117.93 133.56 119.15 137.37 114.86 134.47 109.9 139.73 112.21 143.55 107.92"/>
    <polygon class="cls-1" points="162.2 125.83 159.53 130.91 163.54 135.03 157.88 134.06 155.21 139.14 154.38 133.46 148.72 132.49 153.87 129.94 153.05 124.26 157.05 128.37 162.2 125.83"/>
    <polygon class="cls-1" points="156.34 147.56 158.3 152.98 164.06 152.79 159.51 156.33 161.47 161.75 156.7 158.51 152.16 162.05 153.76 156.52 148.99 153.29 154.74 153.1 156.34 147.56"/>
    <polygon class="cls-1" points="143.23 164.04 142.92 169.79 148.3 171.87 142.73 173.35 142.42 179.1 139.29 174.26 133.72 175.74 137.36 171.27 134.23 166.43 139.6 168.51 143.23 164.04"/>
  </g>
</svg>