<svg width="54" height="65" viewBox="0 0 54 65" fill="none" xmlns="http://www.w3.org/2000/svg">
<path fill-rule="evenodd" clip-rule="evenodd" d="M20.0813 3.67545C16.3823 5.69255 13.3561 7.39942 13.3567 7.46884C13.3583 7.64802 22.2344 12.3537 22.5494 12.3422C22.6928 12.3372 23.7324 11.8362 24.8596 11.2291L26.9093 10.1254L29.148 11.33L31.3865 12.5348L35.0525 10.8104C40.5764 8.21196 41.1501 7.92722 41.0601 7.83155C40.9408 7.70463 38.9595 6.59041 33.5841 3.62792C30.9862 2.19612 28.4647 0.792284 27.9807 0.508218C27.4967 0.224152 27.0346 -0.00436015 26.9539 6.31495e-05C26.8732 0.00448645 23.7804 1.65843 20.0813 3.67545ZM3.85756 12.47L0.00694695 14.5521V23.6901C0.00694695 28.716 0.0575093 32.8279 0.119531 32.8279C0.181337 32.8279 2.07585 31.9682 4.32945 30.9175L8.42694 29.0071V19.3751L10.4292 20.5171C11.9722 21.3962 13.5161 22.2736 15.0608 23.1492L17.6901 24.6394L18.86 24.0856C19.5938 23.7377 20.3261 23.3865 21.0569 23.0318C21.6216 22.7565 23.0078 22.1029 24.1373 21.5791C25.2668 21.055 26.3123 20.5281 26.4606 20.408C26.6575 20.2484 24.256 18.8592 17.5782 15.2694C12.5445 12.5635 8.26451 10.3582 8.06713 10.3687C7.86975 10.3793 5.97545 11.3248 3.85756 12.47ZM41.7541 13.0547C39.1316 14.2941 36.9841 15.3576 36.9816 15.4183C36.9793 15.4788 38.4087 16.3685 40.1582 17.395C41.9075 18.4218 43.3389 19.3167 43.3389 19.3841C43.3389 19.4513 41.7909 20.2365 39.8991 21.1293C38.007 22.0218 33.2247 24.2826 29.2714 26.1534L16.0254 32.4211C12.6934 33.9979 9.68992 35.4191 9.3511 35.5798C2.54523 38.805 0.67457 39.6999 0.417676 39.8535C0.15935 40.0082 0.100838 40.9067 0.0548594 45.4165L0 50.7952L3.4434 52.6319L6.88672 54.4684L11.6614 52.2127C14.2876 50.9721 16.4361 49.8921 16.4361 49.8126C16.4361 49.7332 15.9508 49.4022 15.358 49.0767C14.7648 48.7512 13.5405 48.0306 12.6369 47.475C11.7333 46.9194 10.8324 46.4097 10.6346 46.3421C10.4368 46.2747 10.2779 46.1567 10.2811 46.0798C10.2844 46.0031 12.387 44.9577 14.9532 43.7564C19.9376 41.4235 23.7521 39.6255 31.9412 35.7488C35.603 34.0157 39.2654 32.2836 42.9281 30.5525C46.1472 29.0315 49.89 27.2551 51.2454 26.6049L53.7098 25.4229L53.7646 19.9829L53.8197 14.5431L50.3272 12.6666C48.4063 11.6346 46.7644 10.7928 46.6783 10.7958C46.5923 10.7987 44.3764 11.8151 41.7541 13.0547ZM52.7741 32.6801C52.2595 32.9432 51.2429 33.4359 50.5152 33.7749C49.7874 34.1138 48.4063 34.7662 47.4462 35.2247L45.7006 36.0582L45.6607 40.834C45.6388 43.4606 45.5464 45.5981 45.4554 45.5842C45.2488 45.552 41.9771 43.7956 38.6884 41.9509C36.3148 40.6196 36.1657 40.5667 35.6079 40.8558C35.2855 41.0231 33.3582 41.9279 31.3251 42.8669C29.2919 43.8058 27.5622 44.6353 27.4809 44.7104C27.3997 44.7854 31.4916 47.107 36.5742 49.8698L45.815 54.8931L49.7625 52.7555C51.9334 51.5799 53.7794 50.5076 53.8644 50.3728C54.0558 50.0695 54.0394 32.16 53.8478 32.1842C53.7721 32.1937 53.2888 32.4169 52.7741 32.6801ZM30.9144 53.7013C30.2296 54.0095 29.5451 54.3181 28.8607 54.6271C26.7941 55.5631 27.1991 55.5941 24.7405 54.3129C23.1029 53.4595 22.397 53.1962 22.0907 53.3241C21.8608 53.4199 19.883 54.3514 17.695 55.394C15.5072 56.4366 13.6413 57.2897 13.5485 57.2897C12.6306 57.2897 14.1566 58.2441 20.0452 61.3536L26.9512 65L29.8569 63.4983C31.4551 62.6724 34.6785 61.0184 37.0202 59.8229C39.3618 58.6272 41.2487 57.6178 41.2134 57.5797C41.1778 57.5418 39.2158 56.4871 36.8531 55.236L32.5573 52.9615L30.9144 53.7013Z" fill="url(#paint0_linear_19_393)"/>
<defs>
<linearGradient id="paint0_linear_19_393" x1="27" y1="155.435" x2="26.9999" y2="21.1957" gradientUnits="userSpaceOnUse">
<stop stop-color="#DCB633"/>
<stop offset="0.32" stop-color="#D0AA30"/>
<stop offset="0.68" stop-color="#A87D25"/>
<stop offset="1" stop-color="#FCF78A"/>
</linearGradient>
</defs>
</svg>
