<svg width="1920" height="1037" viewBox="0 0 1920 1037" fill="none" xmlns="http://www.w3.org/2000/svg">
<g clip-path="url(#clip0_62_10)">
<path d="M364.899 94.1641H547.493V99.8082C547.493 122.845 528.761 141.563 505.706 141.563H324.265V134.767C324.265 112.363 342.478 94.1641 364.899 94.1641Z" fill="#A60800"/>
<path d="M104.323 432.291L104.323 304.262H109.971C133.026 304.262 151.758 322.98 151.758 346.017V472.894H144.957C122.536 472.894 104.323 454.695 104.323 432.291Z" fill="#A60800"/>
<path d="M171.7 319.755V407.008C171.7 418.872 181.326 428.432 193.141 428.432C194.063 428.432 194.813 427.684 194.813 426.762V340.085C194.813 328.855 185.706 319.755 174.467 319.755H171.7Z" fill="#A60800"/>
<path d="M442.594 114.955C442.594 114.955 441.844 114.955 440.691 114.955L440.403 113.63L442.594 114.897V114.955Z" fill="#FBD406"/>
<path d="M442.594 114.955C442.594 114.955 441.844 114.955 440.691 114.955L440.403 113.63L442.594 114.897V114.955Z" fill="#FBD406"/>
<path d="M92.4497 177.386L110.49 205.376L126.628 184.067L142.767 205.376L156.023 184.527L171.7 165.061L92.4497 177.386Z" fill="white"/>
<path d="M24.0347 177.386L42.075 205.376L58.2133 184.067L74.3517 205.376L87.6082 184.527L103.285 165.061L24.0347 177.386Z" fill="white"/>
<path d="M156.023 177.386L174.063 205.376L190.202 184.067L206.34 205.376L219.654 184.527L235.331 165.061L156.023 177.386Z" fill="white"/>
<path d="M182.248 247.534L200.288 219.543L216.427 240.91L232.565 219.543L245.822 240.45L261.499 259.858L182.248 247.534Z" fill="white"/>
<path d="M1796.31 433.616L1795.16 435.459L1747.72 512.115L1736.89 529.623L1707.49 577.08L1592.68 762.528H556.138L461.96 790L439.251 728.376L431.7 707.873L415.62 664.275L408.069 643.772L391.988 600.117L384.438 579.614L368.357 536.016L360.807 515.455L344.784 471.915L337.176 451.355L320.634 406.432L313.026 385.814L297.637 344.002L132.219 344.29H97.8674C89.2795 344.29 81.4409 340.776 75.7925 335.132C70.1441 329.488 66.6282 321.656 66.6282 313.074C66.6282 301.095 73.487 290.21 84.3228 285.027L154.236 251.335C159.597 248.743 165.533 247.418 171.527 247.418H232.104C257.176 247.418 277.579 227.319 277.983 202.323L278.386 177.386H97.7521C67.147 177.386 42.4784 152.333 42.9395 121.751C43.2853 99.1171 43.2853 77.923 43.17 77.0015H109.568C118.098 77.0015 125.014 83.9126 125.014 92.4363V117.892H176.888L280.922 27.4717C280.922 27.4717 321.21 27.9324 358.386 28.3356C395.447 28.7963 428.069 52.6397 439.712 87.7713L445.418 104.934L579.712 441.506C609.395 515.916 681.441 564.697 761.556 564.697H1394.24C1438.67 564.697 1482.77 556.404 1524.15 540.163L1595.79 512.115L1791.59 435.459L1796.31 433.616Z" fill="#FBD406"/>
<path d="M47.781 77.2319H88.2997L105.591 177.386H29.1066C13.0259 177.386 0 164.37 0 148.301V124.919C0 98.5412 21.3833 77.1743 47.781 77.1743V77.2319Z" fill="#FBD406"/>
<path d="M76.0229 117.317C76.0229 124.804 82.1325 130.908 89.6253 130.908C97.1181 130.908 103.228 124.804 103.228 117.317C103.228 109.829 97.1181 103.725 89.6253 103.725C82.1325 103.725 76.0229 109.829 76.0229 117.317Z" fill="#442D50"/>
<path d="M290.721 0H585.764V9.15725C585.764 46.4198 555.505 76.656 518.214 76.656H225.015V65.6558C225.015 29.4299 254.467 0.0575928 290.663 0.0575928L290.721 0Z" fill="#A60800"/>
<path d="M1699.14 529.623H1881.73V535.267C1881.73 558.304 1863 577.022 1839.94 577.022H1658.5V570.226C1658.5 547.822 1676.71 529.623 1699.14 529.623Z" fill="#A60800"/>
<path d="M1920 435.459V444.616C1920 481.879 1889.8 512.115 1852.45 512.115H1595.79L1791.58 435.459H1920Z" fill="#A60800"/>
<path d="M299.539 76.771C298.962 89.6718 291.643 101.881 279.308 108.274C260.922 117.777 238.328 110.578 228.818 92.2059C226.282 87.2529 224.899 81.9543 224.668 76.771H299.539Z" fill="white"/>
<path d="M286.513 76.771C286.282 85.3523 281.498 93.5305 273.314 97.7348C261.325 103.955 246.628 99.2322 240.403 87.2529C238.674 83.9125 237.81 80.2842 237.752 76.771H286.513Z" fill="#442D50"/>
<path d="M561.153 762.528H556.138L461.96 790L439.251 728.376L431.7 707.873L415.619 664.275L408.069 643.772L391.988 600.116L384.438 579.613L368.357 536.016L360.807 515.455L344.784 471.915L337.176 451.354L320.634 406.432L313.026 385.814L297.637 344.001L368.415 284.047L385.072 325.457L393.429 346.132L410.893 389.557L419.251 410.176L436.196 452.276L444.496 472.952L461.498 515.052L469.798 535.67L486.743 577.828L495.043 598.446L512.046 640.547L520.346 661.165L561.153 762.528Z" fill="#A60800"/>
<path d="M393.429 346.132L320.634 406.432L313.026 385.814L385.072 325.457L393.429 346.132Z" fill="#FF011B"/>
<path d="M419.251 410.176L344.784 471.915L337.176 451.355L410.893 389.558L419.251 410.176Z" fill="#FF011B"/>
<path d="M444.496 472.952L368.358 536.016L360.807 515.455L436.196 452.276L444.496 472.952Z" fill="#FF011B"/>
<path d="M469.798 535.67L391.988 600.117L384.438 579.614L461.499 515.052L469.798 535.67Z" fill="#FF011B"/>
<path d="M495.043 598.446L415.62 664.275L408.069 643.772L486.744 577.828L495.043 598.446Z" fill="#FF011B"/>
<path d="M520.346 661.165L439.251 728.376L431.7 707.873L512.046 640.547L520.346 661.165Z" fill="#FF011B"/>
<path d="M146.109 145.882H292.046C307.089 145.882 319.308 158.092 319.308 173.124V196.737C319.308 209.234 329.452 219.428 342.017 219.428H405.648C415.85 219.428 424.15 227.722 424.15 237.916C424.15 247.188 431.7 254.733 440.98 254.733H568.991" stroke="#A60800" stroke-width="8" stroke-miterlimit="10"/>
<path d="M928.185 725.266L911.931 741.507C897.061 756.366 872.853 756.02 858.444 740.701L815.101 693.935C801.268 679.249 802.478 627.358 801.21 627.358L813.602 614.976C813.199 614.573 865.36 615.033 880.058 628.74L927.205 671.705C942.651 686.103 943.055 710.407 928.127 725.323L928.185 725.266Z" fill="#442D50"/>
<path d="M655.677 468.92C652.565 472.03 652.565 477.041 655.677 480.093L834.985 659.265C838.098 662.375 843.112 662.375 846.167 659.265C849.279 656.154 849.279 651.144 846.167 648.092L666.859 468.92C663.746 465.81 658.732 465.81 655.677 468.92Z" fill="#442D50"/>
<path d="M1108.07 725.266L1091.82 741.507C1076.95 756.366 1052.74 756.02 1038.33 740.701L994.986 693.935C981.153 679.249 982.363 627.358 981.095 627.358L993.487 614.976C993.084 614.573 1045.25 615.033 1059.94 628.74L1107.09 671.705C1122.54 686.103 1122.94 710.407 1108.01 725.323L1108.07 725.266Z" fill="#442D50"/>
<path d="M835.504 468.92C832.392 472.03 832.392 477.041 835.504 480.093L1014.81 659.265C1017.92 662.375 1022.94 662.375 1025.99 659.265C1029.11 656.154 1029.11 651.144 1025.99 648.092L846.686 468.92C843.573 465.81 838.559 465.81 835.504 468.92Z" fill="#442D50"/>
<path d="M1287.9 725.266L1271.64 741.507C1256.77 756.366 1232.57 756.02 1218.16 740.701L1174.81 693.935C1160.98 679.249 1162.19 627.358 1160.92 627.358L1173.31 614.976C1172.91 614.573 1225.07 615.033 1239.77 628.74L1286.92 671.705C1302.36 686.103 1302.77 710.407 1287.84 725.323L1287.9 725.266Z" fill="#442D50"/>
<path d="M1015.39 468.92C1012.28 472.03 1012.28 477.041 1015.39 480.093L1194.7 659.265C1197.81 662.375 1202.82 662.375 1205.88 659.265C1208.99 656.154 1208.99 651.144 1205.88 648.092L1026.57 468.92C1023.46 465.81 1018.44 465.81 1015.39 468.92Z" fill="#442D50"/>
<path d="M1467.72 725.266L1451.47 741.507C1436.6 756.366 1412.39 756.02 1397.98 740.701L1354.64 693.935C1340.81 679.249 1342.02 627.358 1340.75 627.358L1353.14 614.976C1352.74 614.573 1404.9 615.033 1419.6 628.74L1466.74 671.705C1482.19 686.103 1482.59 710.407 1467.67 725.323L1467.72 725.266Z" fill="#442D50"/>
<path d="M1195.22 468.92C1192.1 472.03 1192.1 477.041 1195.22 480.093L1374.52 659.265C1377.64 662.375 1382.65 662.375 1385.71 659.265C1388.82 656.154 1388.82 651.144 1385.71 648.092L1206.4 468.92C1203.29 465.81 1198.27 465.81 1195.22 468.92Z" fill="#442D50"/>
</g>
<path d="M1179.73 866.454V858.697C1179.73 847.178 1170.36 837.808 1158.83 837.808H995.118C983.594 837.808 974.221 828.439 974.221 816.919V809.162C974.221 797.643 983.594 788.273 995.118 788.273H1099.91C1111.43 788.273 1120.8 778.904 1120.8 767.384V759.627C1120.8 748.108 1111.43 738.738 1099.91 738.738H871.736C860.212 738.738 850.84 729.369 850.84 717.849V710.092C850.84 698.573 841.467 689.203 829.943 689.203H257.672C246.148 689.203 236.775 698.573 236.775 710.092V717.849C236.775 729.369 246.148 738.738 257.672 738.738H291.168C302.691 738.738 312.064 748.108 312.064 759.627V767.384C312.064 778.904 302.691 788.273 291.168 788.273H75.8265C64.3027 788.273 54.93 797.643 54.93 809.162V816.919C54.93 828.439 64.3027 837.808 75.8265 837.808H237.236C248.76 837.808 258.133 847.178 258.133 858.697V866.454C258.133 877.974 248.76 887.343 237.236 887.343H25.3523C13.8285 887.343 4.45581 896.713 4.45581 908.232V915.989C4.45581 927.509 13.8285 936.878 25.3523 936.878H55.1605C66.6843 936.878 76.057 946.247 76.057 957.767V965.524C76.057 977.044 85.4296 986.413 96.9534 986.413H630.351C641.875 986.413 651.248 977.044 651.248 965.524V957.767C651.248 946.247 660.62 936.878 672.144 936.878H717.778C729.302 936.878 738.675 946.247 738.675 957.767V965.524C738.675 977.044 748.048 986.413 759.571 986.413H1120.5C1132.02 986.413 1141.39 977.044 1141.39 965.524V957.767C1141.39 946.247 1150.77 936.878 1162.29 936.878H1254.48C1266 936.878 1275.38 927.509 1275.38 915.989V908.232C1275.38 896.713 1266 887.343 1254.48 887.343H1200.86C1189.33 887.343 1179.96 877.974 1179.96 866.454H1179.73ZM493.141 738.738H524.793C536.317 738.738 545.69 748.108 545.69 759.627V767.384C545.69 778.904 536.317 788.273 524.793 788.273H493.141C481.618 788.273 472.245 778.904 472.245 767.384V759.627C472.245 748.108 481.618 738.738 493.141 738.738Z" fill="#A60800"/>
<path d="M1120.34 990.867H759.418C745.436 990.867 734.066 979.501 734.066 965.524V957.767C734.066 948.705 726.69 941.409 717.702 941.409H672.068C663.002 941.409 655.704 948.782 655.704 957.767V965.524C655.704 979.501 644.334 990.867 630.351 990.867H96.8767C82.8945 990.867 71.5243 979.501 71.5243 965.524V957.767C71.5243 948.705 64.1491 941.409 55.1605 941.409H25.3524C11.3701 941.409 0 930.043 0 916.066V908.309C0 894.332 11.3701 882.966 25.3524 882.966H237.236C246.302 882.966 253.6 875.593 253.6 866.608V858.851C253.6 849.789 246.225 842.493 237.236 842.493H75.8266C61.8444 842.493 50.4742 831.127 50.4742 817.149V809.393C50.4742 795.415 61.8444 784.049 75.8266 784.049H291.168C300.233 784.049 307.532 776.677 307.532 767.691V759.934C307.532 750.872 300.156 743.576 291.168 743.576H257.672C243.69 743.576 232.32 732.21 232.32 718.233V710.476C232.32 696.499 243.69 685.133 257.672 685.133H830.02C844.003 685.133 855.373 696.499 855.373 710.476V718.233C855.373 727.295 862.748 734.591 871.736 734.591H1099.91C1113.89 734.591 1125.26 745.957 1125.26 759.934V767.691C1125.26 781.668 1113.89 793.035 1099.91 793.035H995.118C986.052 793.035 978.754 800.407 978.754 809.393V817.149C978.754 826.212 986.129 833.507 995.118 833.507H1158.83C1172.81 833.507 1184.18 844.874 1184.18 858.851V866.608C1184.18 875.67 1191.56 882.966 1200.55 882.966H1254.17C1268.15 882.966 1279.52 894.332 1279.52 908.309V916.066C1279.52 930.043 1268.15 941.409 1254.17 941.409H1161.98C1152.92 941.409 1145.62 948.782 1145.62 957.767V965.524C1145.62 979.501 1134.25 990.867 1120.27 990.867H1120.34ZM671.991 932.347H717.625C731.607 932.347 742.977 943.713 742.977 957.691V965.447C742.977 974.509 750.352 981.805 759.341 981.805H1120.27C1129.33 981.805 1136.63 974.433 1136.63 965.447V957.691C1136.63 943.713 1148 932.347 1161.98 932.347H1254.17C1263.24 932.347 1270.54 924.974 1270.54 915.989V908.232C1270.54 899.247 1263.16 891.874 1254.17 891.874H1200.55C1186.57 891.874 1175.2 880.508 1175.2 866.531V858.774C1175.2 849.712 1167.82 842.416 1158.83 842.416H995.118C981.136 842.416 969.766 831.05 969.766 817.073V809.316C969.766 795.339 981.136 783.972 995.118 783.972H1099.91C1108.97 783.972 1116.27 776.6 1116.27 767.614V759.858C1116.27 750.795 1108.9 743.5 1099.91 743.5H871.736C857.754 743.5 846.384 732.133 846.384 718.156V710.399C846.384 701.337 839.009 694.041 830.02 694.041H257.672C248.683 694.041 241.308 701.414 241.308 710.399V718.156C241.308 727.218 248.683 734.514 257.672 734.514H291.168C305.15 734.514 316.52 745.88 316.52 759.858V767.614C316.52 781.592 305.15 792.958 291.168 792.958H75.8266C66.7612 792.958 59.4628 800.33 59.4628 809.316V817.073C59.4628 826.135 66.838 833.431 75.8266 833.431H237.236C251.219 833.431 262.589 844.797 262.589 858.774V866.531C262.589 880.508 251.219 891.874 237.236 891.874H25.3524C16.287 891.874 8.98856 899.247 8.98856 908.232V915.989C8.98856 925.051 16.3638 932.347 25.3524 932.347H55.1605C69.1428 932.347 80.5129 943.713 80.5129 957.691V965.447C80.5129 974.509 87.8881 981.805 96.8767 981.805H630.275C639.34 981.805 646.638 974.433 646.638 965.447V957.691C646.638 943.713 658.008 932.347 671.991 932.347ZM524.793 792.804H493.141C479.159 792.804 467.789 781.438 467.789 767.461V759.704C467.789 745.727 479.159 734.361 493.141 734.361H524.793C538.776 734.361 550.146 745.727 550.146 759.704V767.461C550.146 781.438 538.776 792.804 524.793 792.804ZM493.141 743.269C484.076 743.269 476.778 750.642 476.778 759.627V767.384C476.778 776.446 484.153 783.742 493.141 783.742H524.793C533.859 783.742 541.157 776.369 541.157 767.384V759.627C541.157 750.565 533.782 743.269 524.793 743.269H493.141Z" fill="url(#paint0_linear_62_10)"/>
<path d="M681.382 906.317V898.176C681.382 886.084 691.22 876.25 703.315 876.25H875.152C887.248 876.25 897.085 866.416 897.085 854.325V846.183C897.085 834.092 887.248 824.258 875.152 824.258H765.164C753.068 824.258 743.23 814.423 743.23 802.332V794.191C743.23 782.099 753.068 772.265 765.164 772.265H1004.65C1016.75 772.265 1026.59 762.431 1026.59 750.339V742.198C1026.59 730.107 1036.43 720.272 1048.52 720.272H1649.18C1661.28 720.272 1671.12 730.107 1671.12 742.198V750.339C1671.12 762.431 1661.28 772.265 1649.18 772.265H1614.03C1601.93 772.265 1592.09 782.099 1592.09 794.191V802.332C1592.09 814.423 1601.93 824.258 1614.03 824.258H1840.05C1852.15 824.258 1861.99 834.092 1861.99 846.183V854.325C1861.99 866.416 1852.15 876.25 1840.05 876.25H1670.63C1658.54 876.25 1648.7 886.084 1648.7 898.176V906.317C1648.7 918.408 1658.54 928.243 1670.63 928.243H1893.03C1905.13 928.243 1914.96 938.077 1914.96 950.168V958.31C1914.96 970.401 1905.13 980.235 1893.03 980.235H1861.74C1849.65 980.235 1839.81 990.069 1839.81 1002.16V1010.3C1839.81 1022.39 1829.97 1032.23 1817.88 1032.23H1258.02C1245.92 1032.23 1236.08 1022.39 1236.08 1010.3V1002.16C1236.08 990.069 1226.24 980.235 1214.15 980.235H1166.25C1154.16 980.235 1144.32 990.069 1144.32 1002.16V1010.3C1144.32 1022.39 1134.48 1032.23 1122.38 1032.23H743.553C731.458 1032.23 721.62 1022.39 721.62 1010.3V1002.16C721.62 990.069 711.782 980.235 699.687 980.235H602.922C590.827 980.235 580.989 970.401 580.989 958.31V950.168C580.989 938.077 590.827 928.243 602.922 928.243H659.207C671.302 928.243 681.14 918.408 681.14 906.317H681.382ZM1402.03 772.265H1368.81C1356.72 772.265 1346.88 782.099 1346.88 794.191V802.332C1346.88 814.423 1356.72 824.258 1368.81 824.258H1402.03C1414.13 824.258 1423.97 814.423 1423.97 802.332V794.191C1423.97 782.099 1414.13 772.265 1402.03 772.265Z" fill="#A60800"/>
<path d="M743.715 1036.9H1122.55C1137.22 1036.9 1149.16 1024.97 1149.16 1010.3V1002.16C1149.16 992.649 1156.9 984.991 1166.33 984.991H1214.23C1223.75 984.991 1231.41 992.729 1231.41 1002.16V1010.3C1231.41 1024.97 1243.34 1036.9 1258.02 1036.9H1817.96C1832.63 1036.9 1844.57 1024.97 1844.57 1010.3V1002.16C1844.57 992.649 1852.31 984.991 1861.74 984.991H1893.03C1907.71 984.991 1919.64 973.061 1919.64 958.39V950.249C1919.64 935.578 1907.71 923.648 1893.03 923.648H1670.63C1661.12 923.648 1653.46 915.909 1653.46 906.478V898.337C1653.46 888.825 1661.2 881.167 1670.63 881.167H1840.05C1854.73 881.167 1866.66 869.237 1866.66 854.566V846.425C1866.66 831.754 1854.73 819.824 1840.05 819.824H1614.03C1604.51 819.824 1596.85 812.085 1596.85 802.654V794.513C1596.85 785.001 1604.59 777.343 1614.03 777.343H1649.18C1663.86 777.343 1675.79 765.413 1675.79 750.742V742.601C1675.79 727.93 1663.86 716 1649.18 716H1048.44C1033.76 716 1021.83 727.93 1021.83 742.601V750.742C1021.83 760.254 1014.09 767.912 1004.66 767.912H765.164C750.488 767.912 738.554 779.842 738.554 794.513V802.654C738.554 817.325 750.488 829.255 765.164 829.255H875.152C884.668 829.255 892.328 836.994 892.328 846.425V854.566C892.328 864.078 884.587 871.736 875.152 871.736H703.316C688.64 871.736 676.705 883.666 676.705 898.337V906.478C676.705 915.99 668.964 923.648 659.53 923.648H603.245C588.569 923.648 576.635 935.578 576.635 950.249V958.39C576.635 973.061 588.569 984.991 603.245 984.991H700.009C709.525 984.991 717.185 992.729 717.185 1002.16V1010.3C717.185 1024.97 729.119 1036.9 743.795 1036.9H743.715ZM1214.31 975.479H1166.41C1151.74 975.479 1139.8 987.409 1139.8 1002.08V1010.22C1139.8 1019.73 1132.06 1027.39 1122.63 1027.39H743.795C734.28 1027.39 726.619 1019.65 726.619 1010.22V1002.08C726.619 987.409 714.685 975.479 700.009 975.479H603.245C593.73 975.479 586.07 967.741 586.07 958.31V950.168C586.07 940.737 593.811 932.998 603.245 932.998H659.53C674.206 932.998 686.14 921.068 686.14 906.398V898.256C686.14 888.744 693.881 881.086 703.316 881.086H875.152C889.828 881.086 901.763 869.156 901.763 854.486V846.344C901.763 831.673 889.828 819.743 875.152 819.743H765.164C755.649 819.743 747.988 812.005 747.988 802.574V794.432C747.988 784.92 755.729 777.263 765.164 777.263H1004.66C1019.33 777.263 1031.27 765.332 1031.27 750.662V742.52C1031.27 733.008 1039.01 725.351 1048.44 725.351H1649.18C1658.62 725.351 1666.36 733.089 1666.36 742.52V750.662C1666.36 760.174 1658.62 767.831 1649.18 767.831H1614.03C1599.35 767.831 1587.42 779.761 1587.42 794.432V802.574C1587.42 817.244 1599.35 829.174 1614.03 829.174H1840.05C1849.57 829.174 1857.23 836.913 1857.23 846.344V854.486C1857.23 863.997 1849.49 871.655 1840.05 871.655H1670.63C1655.96 871.655 1644.02 883.585 1644.02 898.256V906.398C1644.02 921.068 1655.96 932.998 1670.63 932.998H1893.03C1902.55 932.998 1910.21 940.737 1910.21 950.168V958.31C1910.21 967.821 1902.46 975.479 1893.03 975.479H1861.74C1847.07 975.479 1835.13 987.409 1835.13 1002.08V1010.22C1835.13 1019.73 1827.39 1027.39 1817.96 1027.39H1258.1C1248.58 1027.39 1240.92 1019.65 1240.92 1010.22V1002.08C1240.92 987.409 1228.99 975.479 1214.31 975.479ZM1368.81 829.013H1402.03C1416.71 829.013 1428.64 817.083 1428.64 802.412V794.271C1428.64 779.6 1416.71 767.67 1402.03 767.67H1368.81C1354.13 767.67 1342.2 779.6 1342.2 794.271V802.412C1342.2 817.083 1354.13 829.013 1368.81 829.013ZM1402.03 777.021C1411.55 777.021 1419.21 784.759 1419.21 794.19V802.332C1419.21 811.844 1411.47 819.501 1402.03 819.501H1368.81C1359.3 819.501 1351.64 811.763 1351.64 802.332V794.19C1351.64 784.679 1359.38 777.021 1368.81 777.021H1402.03Z" fill="url(#paint1_linear_62_10)"/>
<defs>
<linearGradient id="paint0_linear_62_10" x1="639.763" y1="1416.24" x2="639.762" y2="784.829" gradientUnits="userSpaceOnUse">
<stop stop-color="#DCB633"/>
<stop offset="0.32" stop-color="#D0AA30"/>
<stop offset="0.68" stop-color="#A87D25"/>
<stop offset="1" stop-color="#FCF78A"/>
</linearGradient>
<linearGradient id="paint1_linear_62_10" x1="1248.14" y1="1483.38" x2="1248.14" y2="820.642" gradientUnits="userSpaceOnUse">
<stop stop-color="#DCB633"/>
<stop offset="0.32" stop-color="#D0AA30"/>
<stop offset="0.68" stop-color="#A87D25"/>
<stop offset="1" stop-color="#FCF78A"/>
</linearGradient>
<clipPath id="clip0_62_10">
<rect width="1920" height="790" fill="white"/>
</clipPath>
</defs>
</svg>
