<?xml version="1.0" encoding="UTF-8"?>
<svg id="Layer_1" data-name="Layer 1" xmlns="http://www.w3.org/2000/svg" viewBox="0 0 200 200">
  <defs>
    <style>
      .cls-1 {
        fill: #ffde00;
      }

      .cls-1, .cls-2 {
        stroke-width: 0px;
      }

      .cls-2 {
        fill: #ff2405;
      }
    </style>
  </defs>
  <g>
    <path class="cls-1" d="m185.27,68.02l-38.75-42.56c-7.67-7.67-20.14-7.67-27.88.07-2.46,2.44-4.13,5.39-4.98,8.53-7.71-5.91-18.83-5.32-25.91,1.78-2.46,2.44-4.13,5.37-5.01,8.5-7.71-5.89-18.83-5.3-25.91,1.78-2.39,2.41-4.04,5.28-4.94,8.32l-18.25-18.25c-7.67-7.67-20.16-7.69-27.9.05-7.67,7.67-7.67,20.16,0,27.83l70.14,70.12-41.61,6.54c-11.23,1.6-19.71,11.37-19.71,22.73,0,8.52,6.95,15.45,15.45,15.45h97.14c15.13,0,29.36-5.89,40.05-16.6l16.22-16.19c10.69-10.69,16.58-24.9,16.58-40.01,0-14.12-5.23-27.65-14.73-38.09Zm-9.13,70.82l-16.22,16.19c-8.75,8.77-20.39,13.58-32.77,13.58H30.02c-2.84,0-5.14-2.3-5.14-5.14,0-6.27,4.67-11.66,10.94-12.54l51.67-8.12c1.92-.29,3.5-1.65,4.1-3.5.59-1.83.11-3.86-1.26-5.23L13.04,56.79c-3.65-3.65-3.65-9.61.05-13.33,1.85-1.83,4.24-2.75,6.65-2.75s4.78.92,6.63,2.75l51.53,51.56c2.01,2.01,5.28,2.01,7.28,0,.99-1.01,1.49-2.35,1.49-3.65s-.5-2.64-1.51-3.65l-21.04-21.04c-3.65-3.65-3.65-9.61.07-13.33,3.65-3.63,9.61-3.63,13.26,0l21.04,21.06c2.01,2.01,5.28,2.01,7.28,0,1.01-1.01,1.51-2.32,1.51-3.65s-.5-2.64-1.51-3.63l-10.76-10.76c-3.65-3.65-3.65-9.59.07-13.31,3.65-3.65,9.61-3.65,13.26,0l10.8,10.78v.02h.02v.02h.02v.02c2.03,1.92,5.23,1.87,7.19-.11,2.01-2.01,2.01-5.28,0-7.28l-.45-.45c-1.76-1.76-2.75-4.13-2.75-6.63s.97-4.85,2.8-6.68c3.68-3.65,9.61-3.63,13.1-.18l38.57,42.4c7.76,8.52,12.04,19.6,12.04,31.15,0,12.36-4.8,23.97-13.55,32.72Z"/>
    <path class="cls-2" d="m189.69,106.11c0,12.36-4.8,23.97-13.55,32.72l-16.22,16.19c-8.75,8.77-20.39,13.58-32.77,13.58H30.02c-2.84,0-5.14-2.3-5.14-5.14,0-6.27,4.67-11.66,10.94-12.54l51.67-8.12c1.92-.29,3.5-1.65,4.1-3.5.59-1.83.11-3.86-1.26-5.23L13.04,56.79c-3.65-3.65-3.65-9.61.05-13.33,1.85-1.83,4.24-2.75,6.65-2.75s4.78.92,6.63,2.75l51.53,51.56c2.01,2.01,5.28,2.01,7.28,0,.99-1.01,1.49-2.35,1.49-3.65s-.5-2.64-1.51-3.65l-21.04-21.04c-3.65-3.65-3.65-9.61.07-13.33,3.65-3.63,9.61-3.63,13.26,0l21.04,21.06c2.01,2.01,5.28,2.01,7.28,0,1.01-1.01,1.51-2.32,1.51-3.65s-.5-2.64-1.51-3.63l-10.76-10.76c-3.65-3.65-3.65-9.59.07-13.31,3.65-3.65,9.61-3.65,13.26,0l10.8,10.78v.02h.02v.02h.02v.02c2.03,1.92,5.23,1.87,7.19-.11,2.01-2.01,2.01-5.28,0-7.28l-.45-.45c-1.76-1.76-2.75-4.13-2.75-6.63s.97-4.85,2.8-6.68c3.68-3.65,9.61-3.63,13.1-.18l38.57,42.4c7.76,8.52,12.04,19.6,12.04,31.15Z"/>
  </g>
  <g>
    <polygon class="cls-1" points="115.48 78.65 121.04 95.77 139.04 95.77 124.48 106.36 130.04 123.48 115.48 112.9 100.92 123.48 106.48 106.36 91.92 95.77 109.92 95.77 115.48 78.65"/>
    <polygon class="cls-1" points="158.8 72.14 158.23 77.86 163.49 80.16 157.88 81.39 157.32 87.11 154.42 82.15 148.81 83.38 152.62 79.09 149.72 74.13 154.98 76.43 158.8 72.14"/>
    <polygon class="cls-1" points="177.46 90.06 174.78 95.14 178.79 99.25 173.13 98.28 170.46 103.37 169.63 97.68 163.97 96.71 169.12 94.17 168.3 88.49 172.31 92.6 177.46 90.06"/>
    <polygon class="cls-1" points="171.59 111.79 173.55 117.21 179.31 117.02 174.76 120.55 176.72 125.97 171.95 122.74 167.41 126.28 169.01 120.74 164.24 117.51 170 117.32 171.59 111.79"/>
    <polygon class="cls-1" points="158.49 128.26 158.17 134.02 163.55 136.09 157.98 137.57 157.67 143.33 154.54 138.49 148.97 139.97 152.61 135.5 149.48 130.66 154.85 132.73 158.49 128.26"/>
  </g>
</svg>