<svg width="818" height="131" viewBox="0 0 818 131" fill="none" xmlns="http://www.w3.org/2000/svg">
<g filter="url(#filter0_d_21_4)">
<path d="M804 6H6V117H804V6Z" fill="#A60800"/>
</g>
<path d="M99 21H711M711 102H99" stroke="url(#paint0_linear_21_4)" stroke-width="3"/>
<path d="M67.2864 93.0638C67.2864 97.876 63.3846 101.734 58.6157 101.734C53.8469 101.734 49.9451 97.8327 49.9451 93.0638C49.9451 88.295 53.8469 84.3932 58.6157 84.3932C63.3846 84.3932 67.2864 88.295 67.2864 93.0638Z" fill="url(#paint1_linear_21_4)"/>
<path d="M66.9827 29.3671C66.9827 34.0059 63.211 37.7343 58.6156 37.7343C54.0201 37.7343 50.2484 33.9626 50.2484 29.3671C50.2484 24.7717 54.0201 21 58.6156 21C63.211 21 66.9827 24.7717 66.9827 29.3671Z" fill="url(#paint2_linear_21_4)"/>
<path d="M90.0466 56.6417C87.5755 54.1706 83.587 54.1706 81.1159 56.6417L80.1621 57.5955L72.6621 50.0954C74.9598 46.1936 74.4829 41.078 71.1013 37.7398C67.7198 34.4016 62.6475 33.8814 58.7457 36.1791H58.3122C56.7515 35.2687 54.974 34.7484 53.1098 34.7484C50.4219 34.7484 47.8641 35.7889 45.9565 37.6964C42.6183 41.0346 42.0981 46.1503 44.3958 50.0521L36.8958 57.5522L35.942 56.5984C34.7715 55.4279 33.1674 54.7342 31.4766 54.7342C29.7859 54.7342 28.2251 55.3845 27.0112 56.5984C24.5401 59.0695 24.5401 63.058 27.0112 65.5291C28.1818 66.6997 29.7859 67.3933 31.4766 67.3933C33.1674 67.3933 34.7281 66.743 35.942 65.5291L36.8958 64.5754L44.3958 72.0754C42.0981 75.9772 42.575 81.0929 45.9565 84.4311C47.9508 86.4253 50.5086 87.3791 53.1098 87.3791C54.8873 87.3791 56.7081 86.9022 58.2688 85.9484H58.7024C60.3064 86.9022 62.0839 87.3791 63.8614 87.3791C66.4626 87.3791 69.0638 86.382 71.0146 84.4311C74.3528 81.0929 74.873 75.9772 72.5753 72.0754L80.0754 64.5754L81.0292 65.5291C82.2431 66.743 83.8905 67.3933 85.4946 67.3933C87.0986 67.3933 88.746 66.7864 89.9599 65.5291C92.4311 63.058 92.4311 59.0695 89.9599 56.5984L90.0466 56.6417ZM58.5723 43.0289L65.8556 50.3122L58.5723 57.5955L51.289 50.3122L58.5723 43.0289ZM67.5897 41.2514C68.977 42.6387 69.4106 44.5896 68.8903 46.3237L62.5174 39.9508C64.2515 39.4739 66.2024 39.9074 67.5897 41.2514ZM49.5115 41.2514C50.4653 40.2976 51.7659 39.734 53.1532 39.734C53.63 39.734 54.1069 39.8207 54.5838 39.9508L48.2109 46.3237C47.734 44.5896 48.1675 42.6387 49.5115 41.2514ZM32.4737 62.0175C32.2136 62.2776 31.9101 62.4077 31.52 62.4077C31.1298 62.4077 30.8263 62.2776 30.5662 62.0175C30.046 61.4973 30.046 60.6736 30.5662 60.1533C30.8263 59.8932 31.1298 59.7632 31.52 59.7632C31.9101 59.7632 32.2136 59.8932 32.4737 60.1533L33.4275 61.1071L32.4737 62.0609V62.0175ZM47.734 53.7804L55.0173 61.0638L47.734 68.3471L40.4507 61.0638L47.734 53.7804ZM58.5289 79.142L51.2456 71.8587L58.5289 64.5754L65.8123 71.8587L58.5289 79.142ZM49.5115 80.9195C48.1242 79.5322 47.6907 77.5813 48.2109 75.8472L54.5838 82.2201C52.8497 82.6969 50.8988 82.2634 49.5115 80.9195ZM67.5897 80.9195C66.2024 82.3068 64.2515 82.7403 62.5174 82.2201L68.8903 75.8472C69.3672 77.5813 68.9337 79.5322 67.5897 80.9195ZM69.3672 68.3471L62.0839 61.0638L69.3672 53.7804L76.6505 61.0638L69.3672 68.3471ZM86.4917 62.0175C85.9715 62.5378 85.1478 62.5378 84.6275 62.0175L83.6737 61.0638L84.6275 60.11C85.1478 59.5897 85.9715 59.5897 86.4917 60.11C87.0119 60.6302 87.0119 61.4539 86.4917 61.9742V62.0175Z" fill="url(#paint3_linear_21_4)"/>
<path d="M760.128 93.0638C760.128 97.876 756.227 101.734 751.458 101.734C746.689 101.734 742.787 97.8327 742.787 93.0638C742.787 88.295 746.689 84.3932 751.458 84.3932C756.227 84.3932 760.128 88.295 760.128 93.0638Z" fill="url(#paint4_linear_21_4)"/>
<path d="M759.825 29.3671C759.825 34.0059 756.053 37.7343 751.458 37.7343C746.862 37.7343 743.091 33.9626 743.091 29.3671C743.091 24.7717 746.862 21 751.458 21C756.053 21 759.825 24.7717 759.825 29.3671Z" fill="url(#paint5_linear_21_4)"/>
<path d="M782.889 56.6417C780.418 54.1706 776.429 54.1706 773.958 56.6417L773.004 57.5955L765.504 50.0954C767.802 46.1936 767.325 41.078 763.943 37.7398C760.562 34.4016 755.49 33.8814 751.588 36.1791H751.154C749.594 35.2687 747.816 34.7484 745.952 34.7484C743.264 34.7484 740.706 35.7889 738.799 37.6964C735.46 41.0346 734.94 46.1503 737.238 50.0521L729.738 57.5522L728.784 56.5984C727.614 55.4279 726.009 54.7342 724.319 54.7342C722.628 54.7342 721.067 55.3845 719.853 56.5984C717.382 59.0695 717.382 63.058 719.853 65.5291C721.024 66.6997 722.628 67.3933 724.319 67.3933C726.009 67.3933 727.57 66.743 728.784 65.5291L729.738 64.5754L737.238 72.0754C734.94 75.9772 735.417 81.0929 738.799 84.4311C740.793 86.4253 743.351 87.3791 745.952 87.3791C747.729 87.3791 749.55 86.9022 751.111 85.9484H751.544C753.149 86.9022 754.926 87.3791 756.703 87.3791C759.305 87.3791 761.906 86.382 763.857 84.4311C767.195 81.0929 767.715 75.9772 765.417 72.0754L772.918 64.5754L773.871 65.5291C775.085 66.743 776.733 67.3933 778.337 67.3933C779.941 67.3933 781.588 66.7864 782.802 65.5291C785.273 63.058 785.273 59.0695 782.802 56.5984L782.889 56.6417ZM751.414 43.0289L758.698 50.3122L751.414 57.5955L744.131 50.3122L751.414 43.0289ZM760.432 41.2514C761.819 42.6387 762.253 44.5896 761.732 46.3237L755.36 39.9508C757.094 39.4739 759.045 39.9074 760.432 41.2514ZM742.354 41.2514C743.307 40.2976 744.608 39.734 745.995 39.734C746.472 39.734 746.949 39.8207 747.426 39.9508L741.053 46.3237C740.576 44.5896 741.01 42.6387 742.354 41.2514ZM725.316 62.0175C725.056 62.2776 724.752 62.4077 724.362 62.4077C723.972 62.4077 723.668 62.2776 723.408 62.0175C722.888 61.4973 722.888 60.6736 723.408 60.1533C723.668 59.8932 723.972 59.7632 724.362 59.7632C724.752 59.7632 725.056 59.8932 725.316 60.1533L726.27 61.1071L725.316 62.0609V62.0175ZM740.576 53.7804L747.859 61.0638L740.576 68.3471L733.293 61.0638L740.576 53.7804ZM751.371 79.142L744.088 71.8587L751.371 64.5754L758.654 71.8587L751.371 79.142ZM742.354 80.9195C740.966 79.5322 740.533 77.5813 741.053 75.8472L747.426 82.2201C745.692 82.6969 743.741 82.2634 742.354 80.9195ZM760.432 80.9195C759.045 82.3068 757.094 82.7403 755.36 82.2201L761.732 75.8472C762.209 77.5813 761.776 79.5322 760.432 80.9195ZM762.209 68.3471L754.926 61.0638L762.209 53.7804L769.493 61.0638L762.209 68.3471ZM779.334 62.0175C778.814 62.5378 777.99 62.5378 777.47 62.0175L776.516 61.0638L777.47 60.11C777.99 59.5897 778.814 59.5897 779.334 60.11C779.854 60.6302 779.854 61.4539 779.334 61.9742V62.0175Z" fill="url(#paint6_linear_21_4)"/>
<defs>
<filter id="filter0_d_21_4" x="0" y="0" width="818" height="131" filterUnits="userSpaceOnUse" color-interpolation-filters="sRGB">
<feFlood flood-opacity="0" result="BackgroundImageFix"/>
<feColorMatrix in="SourceAlpha" type="matrix" values="0 0 0 0 0 0 0 0 0 0 0 0 0 0 0 0 0 0 127 0" result="hardAlpha"/>
<feOffset dx="4" dy="4"/>
<feGaussianBlur stdDeviation="5"/>
<feComposite in2="hardAlpha" operator="out"/>
<feColorMatrix type="matrix" values="0 0 0 0 0 0 0 0 0 0 0 0 0 0 0 0 0 0 0.25 0"/>
<feBlend mode="normal" in2="BackgroundImageFix" result="effect1_dropShadow_21_4"/>
<feBlend mode="normal" in="SourceGraphic" in2="effect1_dropShadow_21_4" result="shape"/>
</filter>
<linearGradient id="paint0_linear_21_4" x1="99.0154" y1="61.4992" x2="710.959" y2="61.4992" gradientUnits="userSpaceOnUse">
<stop stop-color="#DCB633"/>
<stop offset="0.32" stop-color="#D0AA30"/>
<stop offset="0.68" stop-color="#A87D25"/>
<stop offset="1" stop-color="#FCF78A"/>
</linearGradient>
<linearGradient id="paint1_linear_21_4" x1="51.9394" y1="87.4713" x2="65.2488" y2="98.613" gradientUnits="userSpaceOnUse">
<stop stop-color="#B81010"/>
<stop offset="1" stop-color="#851C1F"/>
</linearGradient>
<linearGradient id="paint2_linear_21_4" x1="52.1559" y1="23.9914" x2="64.9885" y2="34.7863" gradientUnits="userSpaceOnUse">
<stop stop-color="#B81010"/>
<stop offset="1" stop-color="#851C1F"/>
</linearGradient>
<linearGradient id="paint3_linear_21_4" x1="37.8929" y1="43.7659" x2="79.2517" y2="78.4483" gradientUnits="userSpaceOnUse">
<stop stop-color="#F8DA81"/>
<stop offset="0.27" stop-color="#F1D079"/>
<stop offset="0.73" stop-color="#DFB566"/>
<stop offset="1" stop-color="#D3A358"/>
</linearGradient>
<linearGradient id="paint4_linear_21_4" x1="744.781" y1="87.4713" x2="758.091" y2="98.613" gradientUnits="userSpaceOnUse">
<stop stop-color="#B81010"/>
<stop offset="1" stop-color="#851C1F"/>
</linearGradient>
<linearGradient id="paint5_linear_21_4" x1="744.998" y1="23.9914" x2="757.831" y2="34.7863" gradientUnits="userSpaceOnUse">
<stop stop-color="#B81010"/>
<stop offset="1" stop-color="#851C1F"/>
</linearGradient>
<linearGradient id="paint6_linear_21_4" x1="730.735" y1="43.7659" x2="772.094" y2="78.4483" gradientUnits="userSpaceOnUse">
<stop stop-color="#F8DA81"/>
<stop offset="0.27" stop-color="#F1D079"/>
<stop offset="0.73" stop-color="#DFB566"/>
<stop offset="1" stop-color="#D3A358"/>
</linearGradient>
</defs>
</svg>
