<svg width="61" height="57" viewBox="0 0 61 57" fill="none" xmlns="http://www.w3.org/2000/svg">
<path fill-rule="evenodd" clip-rule="evenodd" d="M13.137 34.5238C13.2658 34.5698 13.3983 34.603 13.5328 34.6232C14.3811 36.7604 15.2247 38.8998 16.0636 41.0413C17.5718 44.8948 19.0921 48.8636 19.4249 50.0049C19.8417 51.4091 20.2795 52.3644 20.7593 53.0184C21.0082 53.3518 21.293 53.6468 21.6289 53.8712C21.8038 53.9882 21.991 54.0829 22.1866 54.1533C23.1462 54.538 24.0217 54.3777 24.5705 54.1821C24.8925 54.0646 25.1989 53.903 25.482 53.7013L25.497 53.6948L33.971 48.0461L43.7613 56.0672C43.9052 56.1858 44.0611 56.2852 44.229 56.3653C45.4045 56.9103 46.5439 57.1027 47.6174 56.9488C48.6849 56.7885 49.5335 56.3108 50.1662 55.769C50.8927 55.143 51.4719 54.3437 51.8574 53.4352L51.8844 53.3646L51.8934 53.339L51.8994 53.3262V53.3198L51.9024 53.3165C51.9545 53.1787 51.9946 53.0359 52.0223 52.8902L60.958 4.72225C60.9862 4.56807 61.0003 4.4113 61 4.2542C61 2.84362 60.5022 1.50037 59.3358 0.689289C58.3343 -0.00638081 57.2218 -0.0384397 56.5171 0.0192656C55.7615 0.0833826 55.0598 0.282145 54.5891 0.442438C54.3255 0.531737 54.0655 0.632267 53.8094 0.743788L53.7765 0.759817L3.65851 21.7774L3.65251 21.7806C3.48294 21.8473 3.31589 21.9211 3.15175 22.0018C2.75433 22.1928 2.37309 22.4202 2.0123 22.6814C1.33162 23.1783 -0.236623 24.544 0.0302492 26.8009C0.240149 28.5962 1.3916 29.7022 2.09626 30.2344C2.48007 30.5261 2.8459 30.7345 3.11577 30.8724C3.23571 30.9365 3.49359 31.0455 3.60453 31.0968L3.63452 31.1064L13.137 34.5238ZM55.5306 5.18389H55.5246C55.4988 5.19615 55.4728 5.2079 55.4467 5.21916L5.26874 26.2656C5.24292 26.2767 5.21693 26.2874 5.19077 26.2976L5.16079 26.3072C5.06912 26.3458 4.97908 26.3885 4.89092 26.4355C4.97438 26.4866 5.06047 26.5326 5.14879 26.5733L14.5703 29.9651C14.7386 30.0258 14.8997 30.1076 15.05 30.2088L46.1661 10.7332L46.1961 10.7172C46.317 10.6387 46.441 10.5659 46.5679 10.4992C46.7838 10.3806 47.1286 10.2075 47.5185 10.0792C47.7883 9.98946 48.5889 9.7362 49.4525 10.0343C49.9106 10.1887 50.3188 10.4777 50.6306 10.8683C50.9424 11.2588 51.1451 11.7353 51.2157 12.2432C51.3274 12.688 51.3305 13.156 51.2247 13.6025C51.0148 14.4841 50.4391 15.1701 49.9143 15.6959C49.4645 16.1447 43.6293 22.1589 37.8751 28.0961L30.0399 36.1749L28.6455 37.6175L46.2531 52.0502C46.4907 52.1569 46.7488 52.2009 47.0057 52.1785C47.1351 52.1597 47.2568 52.1019 47.3565 52.0118C47.4781 51.9021 47.5824 51.7722 47.6654 51.6271L47.6714 51.6239L56.3372 4.90498C56.0642 4.97518 55.7966 5.06735 55.5366 5.18069L55.5306 5.18389ZM30.1598 44.9172L26.6455 42.0384L25.7939 47.8249L30.1598 44.9172ZM23.422 36.3255L26.9154 32.7189L34.7506 24.6338L37.6682 21.6267L18.1176 33.8634L18.2225 34.1263C19.4555 37.2406 20.675 40.361 21.8808 43.4874L22.7294 37.7169C22.8061 37.1817 23.0503 36.6933 23.422 36.3255Z" fill="url(#paint0_linear_19_394)"/>
<defs>
<linearGradient id="paint0_linear_19_394" x1="30.5" y1="136.304" x2="30.4999" y2="18.587" gradientUnits="userSpaceOnUse">
<stop stop-color="#DCB633"/>
<stop offset="0.32" stop-color="#D0AA30"/>
<stop offset="0.68" stop-color="#A87D25"/>
<stop offset="1" stop-color="#FCF78A"/>
</linearGradient>
</defs>
</svg>
